<svg viewBox="0 0 599 150" xmlns="http://www.w3.org/2000/svg">
  <path d="M565.152954,104.155026 C563.896847,108.731869 559.467888,108.583751 553.858367,105.926516 C548.247365,103.269281 543.08074,101.423732 542.711907,91.4583597 C542.415655,81.9358599 544.631616,38.5313905 544.778261,35.1365282 C544.778261,34.9884103 544.852323,34.8417736 544.926386,34.7677147 C545.738115,34.1026653 549.576053,31.1491944 556.44168,31.2987934 C564.193099,31.5194891 566.111327,32.1089984 566.407578,35.5794007 C566.70383,39.048322 567.441496,53.0736059 567.29337,69.2391935 C567.146726,85.4047811 566.48016,99.504124 565.152954,104.155026 M442.168611,35.5794007 L442.094548,22.4398618 C442.094548,22.3658029 442.094548,22.2191662 442.168611,22.1451072 L446.375381,15.2798426 C446.671633,14.83697 447.409299,15.0576657 447.335236,15.5745972 C446.59757,23.9891751 444.457153,31.667607 443.201047,35.7260375 C442.98034,36.3170279 442.168611,36.1703912 442.168611,35.5794007 M596.674107,23.9891751 C593.942669,10.9977541 584.419666,4.87159773 572.461477,3.39486227 C560.501806,1.91960798 540.570009,1.91960798 531.121069,10.6289405 C524.256923,16.9772737 520.048671,24.5075877 518.571858,30.1168126 C518.423732,30.6337441 517.686066,30.6337441 517.53794,30.0427536 L512.224671,0.442872521 C512.150608,0.220695671 511.926938,0 511.706231,0 L510.747857,0 C510.525669,0 510.377543,0.146636721 510.304961,0.294754621 C508.531896,3.91179374 505.653814,4.94565668 501.66775,5.01971563 C497.606143,5.01971563 467.19297,5.31447025 464.240824,5.31447025 C461.433842,5.3885292 458.703885,3.32080332 457.966219,1.55079441 C457.892156,1.32861756 457.669967,1.25455861 457.44926,1.18049966 L455.677676,1.18049966 C455.529551,1.18049966 455.382906,1.25455861 455.23478,1.40119533 L451.986383,5.60922487 C451.912321,5.75734277 451.764195,5.83140172 451.543488,5.83140172 L418.249269,5.75734277 C418.102625,5.75734277 417.880436,5.83140172 417.806373,5.97803844 L412.270915,15.0576657 C412.122789,15.2798426 412.196852,15.5745972 412.419041,15.7227151 C415.223061,17.9370777 415.740019,19.1175773 415.886664,21.7022347 C415.960727,23.5477837 415.886664,27.9765089 415.886664,30.707803 C415.886664,31.2247345 415.148998,31.4454302 414.854228,30.9284987 L402.821975,6.12615634 C402.747912,5.97803844 402.527205,5.83140172 402.305016,5.83140172 L376.172677,6.27427424 C376.024551,6.27427424 375.803843,6.34833319 375.729781,6.49496991 L370.339486,15.2057836 C370.192841,15.4279605 370.266904,15.6486561 370.413548,15.870833 C373.441238,18.8968817 374.401093,23.5477837 374.32703,28.2712636 C374.252967,33.1428613 373.367175,85.7735947 372.776154,87.9879573 C372.333258,89.6868696 369.824008,93.0091541 368.717509,94.4844084 C368.49532,94.779163 368.643446,95.2975757 369.086342,95.2975757 L399.942411,98.6924379 C400.089056,98.6924379 400.312725,98.618379 400.386788,98.4717422 C401.197036,97.4378793 404.592078,93.0091541 405.553413,90.3504378 C405.627476,90.1297421 405.553413,89.9075653 405.331225,89.7609286 C404.519496,89.1699381 402.305016,87.5465659 401.271099,86.6593397 C399.942411,85.552899 399.130682,83.4125954 399.204745,78.2447618 C399.278808,74.5551449 399.499515,68.796321 399.647641,65.6962133 C399.647641,65.1792819 400.386788,65.031164 400.681558,65.4755177 C403.412997,71.0847425 411.383642,87.6191437 412.713811,90.3504378 C414.264687,93.5246044 413.969917,95.3701534 411.902082,99.3560061 C411.753956,99.6522419 411.902082,100.095114 412.270915,100.095114 L442.094548,105.261467 C442.315255,105.261467 442.463381,105.187408 442.610025,105.040771 L447.998839,97.3638204 C448.148446,97.1416435 448.148446,96.8468889 447.924776,96.6261932 C444.08832,93.5986633 440.912504,88.7270656 441.133212,79.7214973 C441.356882,71.7497919 441.651652,52.1138019 441.799778,46.5771548 C441.799778,46.0617045 442.389318,45.9135866 442.758151,46.2824002 C443.27511,46.9459684 443.940194,47.5369588 444.309027,47.6110178 C445.046693,47.6850767 445.784359,47.6110178 446.671633,46.1357635 C447.483361,44.659028 451.321299,37.7937634 453.315071,34.2507832 C455.23478,30.8544397 459.885928,31.0766166 464.166762,31.2247345 C464.461532,31.2247345 464.68372,31.4454302 464.68372,31.7401848 C464.535595,37.6456455 463.501677,91.5324186 463.501677,96.4040164 C463.427614,101.570369 462.395178,103.564036 460.770239,105.483644 C459.811865,106.591566 458.998655,107.549888 458.481696,108.06682 C458.186926,108.361574 458.335052,108.878506 458.777948,108.952565 L495.096893,117.441202 C495.317601,117.515261 495.465727,117.441202 495.613852,117.294565 L501.593688,109.764251 C501.740332,109.543555 501.740332,109.174742 501.519625,109.026624 C497.164729,105.704339 493.177184,98.8405558 493.32531,87.8413206 C493.471954,77.2123801 494.653998,36.4651458 494.802123,31.4454302 C494.802123,31.1491944 495.022831,30.9284987 495.317601,30.9284987 C501.002666,30.9284987 508.016419,32.3311752 511.485523,42.8875379 C511.632168,43.2563515 512.150608,43.4029882 512.371315,43.0341747 L512.740148,42.5927833 C513.034918,42.2224886 513.700003,42.4431842 513.700003,42.9615969 C513.477814,46.2083412 512.888274,54.1074689 512.666085,67.9846349 C512.224671,92.4181637 514.511732,111.904555 522.78011,120.394673 C531.048487,128.883309 542.784488,135.157584 561.092828,138.257691 C579.325623,141.357799 589.735898,130.137868 592.688044,118.032192 C595.64019,105.926516 598.002795,88.8751835 598.816005,68.2053306 C599.110775,52.6307334 599.405545,36.9080183 596.674107,23.9891751"></path>
  <path d="M118.131502,86.1073851 C118.057288,86.3286448 117.836129,86.402893 117.613486,86.402893 C116.948525,86.402893 115.247531,86.4771412 112.362075,86.4771412 C108.442071,86.402893 108.367857,79.8170768 107.480253,74.7845331 C106.592648,69.8262377 107.331824,43.9982555 107.554467,38.003455 C107.775626,32.157151 112.287861,31.8616431 117.095469,31.2691424 C117.392327,31.1948942 117.6877,31.4176388 117.761915,31.7131467 C118.352661,33.8589199 120.645886,42.9617504 120.498941,59.1686497 C120.498941,65.3861947 121.238117,79.88984 118.131502,86.1073851 M148.829544,36.968435 C147.498138,22.6103162 145.500286,11.7329534 131.963581,7.36567375 C118.426875,2.99987901 99.6387597,3.51664655 90.688504,16.394256 C82.8470112,27.717108 75.1539472,38.5217075 77.7440295,66.5697112 C77.8167596,67.2364601 77.0033699,67.531968 76.6337822,66.9394673 C74.0451842,62.720684 67.7577408,54.2118392 56.5869904,48.8823027 C41.2750768,41.6297376 34.9876334,37.6336989 37.1324294,34.228676 C39.2787096,30.7508899 46.231114,28.3096087 55.0344253,34.4514206 C63.0970769,40.0022168 66.5732791,50.6583199 67.0912956,52.5828335 C67.1655099,52.7298449 67.3139387,52.8798263 67.4608832,52.9525895 L68.7922894,53.4708421 C69.0876627,53.5450903 69.3845203,53.4708421 69.5329491,53.1753342 L75.0055184,43.6284994 C75.0812171,43.480003 75.0812171,43.3315065 75.0812171,43.1844951 L66.2036914,1.07536542 C66.129477,0.557112914 65.4645161,0.410101459 65.1676585,0.852620789 C62.1352584,4.70164798 57.4745945,7.06868091 52.0747553,5.95941265 C46.231114,4.70164798 33.5820128,0.482864704 21.4509282,8.92043126 C9.31984347,17.3565128 3.69736106,33.9331681 5.69521252,43.2587433 C7.69306398,52.6570817 12.5748867,59.3171461 27.5899427,68.0502205 C42.606483,76.78181 52.888145,83.8873636 52.8154149,93.950966 C52.7412005,104.090302 47.1187181,106.680079 38.0942479,106.607316 C29.2182065,106.531583 19.454561,102.165788 9.54100236,78.7063236 C9.31984347,78.2623193 8.72761262,78.1880711 8.50645373,78.6320754 L0.0727301051,91.8051927 C0,91.9536891 0,92.1021856 0,92.249197 L12.9444744,149.528721 C13.0914189,150.048458 13.8320786,150.19547 14.0532375,149.677217 C21.1555549,136.060096 28.1821736,132.803569 39.2787096,134.581071 C50.7433491,136.357088 59.3240172,132.879302 64.9464996,127.624014 C70.4947676,122.442974 79.5177535,110.454858 81.7367639,97.1332443 C81.8109783,96.8377364 82.0336214,96.6164767 82.3289947,96.6164767 L82.99544,96.6164767 C83.2908133,96.6164767 83.5134564,96.8377364 83.5876708,97.058996 C84.2526318,99.5017621 87.9514771,111.268618 101.85777,114.155389 C117.318112,117.337667 131.150191,112.67488 136.624245,107.124083 C142.098298,101.574772 147.646566,92.4719417 148.385742,81.7415904 C149.052187,71.0840024 150.16095,51.3250688 148.829544,36.968435"></path>
  <path d="M329.628364,69.1409896 L329.923219,60.8668696 C329.923219,60.8668696 330.883351,60.7927553 337.528708,60.718641 C344.174065,60.646009 352.372228,63.4534585 352.298144,69.3618502 L329.628364,69.1409896 Z M330.440327,31.4657284 L350.74682,31.8362998 C347.719738,35.6027884 343.658439,36.4150811 340.335019,36.4150811 C337.0116,36.4150811 329.923219,36.4891953 329.923219,36.4891953 L330.440327,31.4657284 Z M298.172191,80.9607375 C297.358746,80.5175341 292.116544,74.6076601 290.56522,71.651982 C289.015377,68.6977861 283.919863,56.8039239 283.919863,56.8039239 C291.525352,54.5137921 295.364398,40.479509 296.177843,36.4891953 C296.989806,32.5003639 297.803251,24.6709297 295.808903,18.9819163 L296.843119,17.8746488 C300.756249,21.2720481 301.273357,23.1189763 301.273357,27.0336935 C301.199273,30.9484106 300.97702,76.1581312 300.97702,78.8173521 C300.97702,81.4780553 298.91007,81.4024588 298.172191,80.9607375 L298.172191,80.9607375 Z M267.822837,34.1249493 C266.197428,34.7163814 256.450904,39.1484163 256.450904,39.1484163 L256.671675,31.9089319 C261.915358,31.3930964 265.68032,31.6880713 267.5265,31.9089319 C269.372679,32.0571604 269.520848,33.5349995 267.822837,34.1249493 L267.822837,34.1249493 Z M194.793546,37.5979452 C192.947366,38.3361236 183.642384,41.8091195 183.642384,41.8091195 L183.5683,32.3536176 C183.5683,32.3536176 188.960152,31.8362998 193.021451,31.6880713 C197.081267,31.613957 197.081267,33.978203 197.081267,34.7163814 C197.081267,35.4545598 196.639725,36.8582845 194.793546,37.5979452 L194.793546,37.5979452 Z M365.219919,59.3890305 C362.265439,67.514922 353.847987,69.2151039 353.847987,69.2151039 L358.57308,60.2028055 L354.216926,32.6485925 C356.357961,32.5003639 357.761117,36.1201062 358.204141,39.00167 C358.647164,41.8817515 359.46061,46.5361293 359.46061,46.5361293 L366.992014,33.6091138 L361.158621,4.13385827 L358.426393,4.13385827 C357.318093,6.12901512 353.994674,7.08805411 349.786688,7.2362827 C345.578703,7.310397 300.459912,6.9413078 300.459912,6.9413078 L294.626518,15.8794919 C292.559568,9.67464304 288.424185,7.2362827 279.193287,7.08805411 C270.037956,7.01393981 230.016162,7.01393981 230.016162,7.01393981 L223.517491,16.0262382 L227.504706,21.3461624 L228.021814,84.2840226 C224.255371,84.2113906 219.676964,79.1138093 216.132773,71.2102608 C212.588583,63.3052299 210.816487,59.2422842 210.816487,59.2422842 C218.421977,54.8102493 222.040251,48.6780325 222.55736,41.8817515 C223.074468,35.0854706 223.222636,33.0176817 223.369323,24.1521296 C223.443407,15.2880598 219.676964,7.2362827 205.795057,6.9413078 C190.584079,6.64485062 154.254644,6.79307921 154.254644,6.79307921 L147.904142,15.8794919 C153.294512,20.0165519 154.623583,24.0053833 154.549499,31.5398427 C154.475415,39.074302 154.992523,75.4199528 154.918439,81.4780553 C154.844354,87.4605613 155.435547,93.223689 152.039525,97.9506988 C148.642021,102.751823 146.500986,107.480315 146.500986,107.480315 L186.89172,100.832263 L192.28209,90.0471502 C186.302009,89.086629 183.273445,84.8013404 183.347529,78.3741486 C183.421613,71.9484392 183.5683,68.920129 183.5683,68.920129 L184.897372,69.0668753 L194.128269,89.9730359 L189.475778,100.60992 C189.475778,100.60992 226.397887,95.2914778 258.591939,94.5532994 L265.164694,84.3581369 C258.740108,83.1026407 256.00788,79.2620379 256.228651,74.4594315 C256.450904,69.6583074 256.893928,67.6631506 256.893928,67.6631506 L259.183131,67.6631506 L267.453897,85.5395188 L262.13613,93.5927782 C262.13613,93.5927782 290.56522,93.296321 315.967228,94.1842102 C341.369236,95.0691349 344.396318,95.2173635 347.275232,95.4397064 C350.155628,95.5864527 354.439179,97.8024702 355.325227,101.865416 L361.306789,92.1149391 L369.796844,60.4236661 L365.219919,59.3890305 Z"></path>
  <path d="M64.0796452,6.08227918 C64.0052957,5.9339653 63.8580838,5.8612915 63.7078979,5.9339653 C61.7822466,7.48681166 59.2632865,8.6688733 55.1874486,8.59471636 C50.9629117,8.52204256 41.6246183,6.67256844 37.2528695,6.89503926 C32.8811207,7.11751009 18.94803,9.11233182 13.9844594,23.0820165 C9.01940182,37.0517011 15.0952405,46.1433422 18.0602974,49.4700226 C21.0238672,52.796703 25.544315,56.7136726 36.3636498,62.1834886 C47.1829847,67.6533046 57.1874493,74.7486408 58.9658887,83.0260386 C60.744328,91.3049196 60.4484171,96.6264217 56.66849,101.357635 C52.89005,106.087364 48.7398626,109.414045 38.8840969,109.1189 C29.322755,108.896429 20.357696,106.753294 9.31531271,86.7220206 C9.16661377,86.5010329 8.79635341,86.6478637 8.87070288,86.8703345 L19.4684763,132.697841 C19.5413388,132.918829 19.8387367,132.918829 19.9115992,132.770515 C20.6536069,131.219152 22.876656,127.374856 27.0997059,126.562096 C32.3621614,125.526865 42.515325,126.118637 47.7762935,126.192794 C53.0372619,126.266951 61.2632873,122.570969 64.7458164,119.318446 C68.2298326,116.065922 77.4179401,108.304657 78.4558587,91.896692 C79.5681268,75.4872439 72.0826221,63.8090088 67.3406129,60.1130268 C62.5227673,56.4170448 49.6290822,47.6961885 41.6989678,43.7050619 C33.7703403,39.7124522 29.0268442,32.9122606 32.2134624,26.4828538 C35.4000807,20.0519638 43.1814962,20.5695793 45.7019432,20.5695793 C48.2209033,20.5695793 60.9673764,19.6085053 70.4528818,37.5693166 C70.6000937,37.7917874 70.9718411,37.7176305 70.8974916,37.4210027 L64.0796452,6.08227918 Z" fill="white"></path>
  <path d="M130.414319,79.0018714 C130.045045,84.5503365 128.78744,84.6245535 126.349347,86.8436426 C123.983922,89.0612474 116.076431,89.2096815 112.750006,89.2096815 C109.497732,89.2096815 108.907488,88.6916466 106.985487,86.3983405 C105.063487,84.1050343 103.659062,68.4971932 103.36394,56.070294 C103.068818,43.6419104 104.176637,34.395953 105.358609,29.4382555 C106.542063,24.4835267 111.197279,23.0778562 117.258402,23.0036391 C127.310347,22.8552051 128.640621,25.7407632 129.379167,31.9542128 C130.119197,38.1676624 130.709441,45.196015 131.152865,58.2893831 C131.670441,71.4569683 130.857743,73.5276234 130.414319,79.0018714 M146.451753,58.807418 C145.787358,24.4093097 145.564904,8.87420128 117.924281,8.28194939 C108.315761,8.06078264 98.6330894,10.3540888 92.3509948,19.6000462 C86.0689001,28.847488 87.473325,55.6992088 87.768447,65.3904684 C88.1392033,75.0075109 89.0260523,86.6209916 93.7554196,95.4231311 C98.4862699,104.226755 104.471759,105.188608 110.237761,105.114391 C115.928129,105.040174 128.197196,103.782937 133.813412,99.9370108 C139.431112,96.1638171 147.191782,93.204042 146.451753,58.807418" fill="white"></path>
  <path d="M200.721624,37.9457045 C198.433154,38.8335051 183.227044,44.8269016 180.864513,45.7147023 C180.717873,45.7889331 180.569752,45.6404714 180.569752,45.4920098 L180.27351,23.6651792 C180.27351,23.5182021 180.349052,23.4439713 180.495692,23.4439713 C182.48792,23.4439713 197.178568,23.6651792 200.352803,23.73941 C203.527038,23.8878716 204.634983,27.3663279 204.707563,27.7359974 L204.707563,27.8087436 L204.634983,32.8401087 C204.560923,35.8004338 203.158216,36.9836731 200.721624,37.9457045 L200.721624,37.9457045 Z M224.860916,86.7777078 C225.081616,86.7777078 225.155677,86.4080383 224.934976,86.3338075 C220.873497,84.9278758 215.632973,78.4163482 213.344502,73.0895444 C210.981971,67.6142791 205.372626,54.1488081 204.634983,52.3732069 C204.560923,52.2247453 204.634983,52.1505144 204.707563,52.0777682 C205.667387,51.6338679 210.023628,49.6355742 213.713324,48.0826654 C217.921444,46.3055796 219.767032,41.3484454 219.841093,36.2443341 C219.915153,31.1387382 219.841093,34.6157099 219.987733,21.2987006 C220.135854,8.05443751 199.392978,8.8680073 199.392978,8.8680073 L158.27605,9.09069977 C158.055349,9.09069977 157.981289,9.38613844 158.201989,9.53460008 C161.081463,10.9405318 163.147752,15.6007428 163.518054,20.3366692 C163.886876,25.7377037 164.255697,67.2446096 164.107576,78.2693711 C163.960936,88.8487477 162.410109,91.2909418 156.652643,95.8784065 C156.431942,96.0268681 156.578582,96.3223068 156.800764,96.248076 L186.180579,90.8470414 C186.401279,90.7728106 186.401279,90.477372 186.253158,90.4031411 C181.677698,88.2578704 180.27351,83.8916135 180.349052,74.9393765 C180.421631,66.6522476 180.27351,62.8056065 180.200931,61.9920367 C180.200931,61.9178059 180.27351,61.843575 180.349052,61.7693442 L189.353332,58.2181417 C189.427393,58.1439109 189.575514,58.2181417 189.649574,58.2923726 C190.607918,60.2891817 199.024157,77.5285475 200.278742,80.5631035 C201.533328,83.6704057 201.97621,84.853645 197.843632,89.5895713 C197.695511,89.7365484 197.843632,89.9592408 198.064332,89.9592408 L224.860916,86.7777078 Z" fill="white"></path>
  <path d="M272.987465,35.7519435 C270.390176,36.9302028 266.904302,37.6664301 263.269586,39.2142815 C260.228748,40.5403776 255.778379,42.8983747 254.294427,43.6360804 C254.072653,43.7824388 253.84939,43.562162 253.84939,43.3404068 L253.478774,24.7735822 C253.478774,24.6272238 253.627616,24.4054686 253.774969,24.479387 C256.074575,24.479387 269.352749,24.6272238 272.764202,24.6996638 C276.54776,24.6996638 276.398918,27.4257746 276.324497,30.5939173 C276.250076,33.7620601 275.583265,34.5736841 272.987465,35.7519435 M271.503512,84.8204579 L298.57783,84.3045074 C298.948446,84.3045074 299.022867,83.8624754 298.726672,83.7146386 C295.462572,82.1682656 291.902277,79.6624317 289.380897,74.8739976 C286.785097,69.8638082 278.847365,52.3288846 277.734029,49.8245291 C277.661096,49.6766923 277.734029,49.4564154 277.957291,49.382497 C289.380897,44.9606982 291.012203,42.2360658 292.71793,37.3722349 C294.423656,32.4359639 293.756845,25.0677775 292.941192,19.6909528 C292.124051,14.3126498 289.083214,10.0386878 279.292402,9.96476935 L232.931168,9.4488189 C232.634973,9.4488189 232.486131,9.81841091 232.707905,10.0386878 C235.230773,12.3966848 236.789147,13.9445362 236.862079,18.6590519 C236.9365,23.7416813 237.159763,62.7912954 237.234183,71.7797732 C237.307116,80.1044638 235.601389,83.1247697 232.264357,85.6306036 C232.041094,85.8523588 232.189936,86.2204724 232.486131,86.2204724 L258.226827,84.8204579 C258.523022,84.8204579 258.670375,84.4523442 258.448601,84.230589 C256.519611,82.7566561 254.294427,78.4841724 254.220006,75.2421112 C254.145585,71.6319364 254.072653,60.1391031 254.072653,58.4448933 C254.072653,58.2970565 254.145585,58.2231381 254.294427,58.1492196 L263.195165,54.9086369 C263.344007,54.8347185 263.565781,54.9086369 263.565781,55.0549953 C264.679117,57.4129924 272.542428,74.3580471 274.099313,77.6001083 C275.508844,80.6943326 274.767612,82.5363792 271.577933,84.3045074 C271.058475,84.3784258 271.132896,84.8204579 271.503512,84.8204579" fill="white"></path>
  <path d="M307.4353,10.8635758 C307.138809,10.7148891 307.212932,10.270316 307.583546,10.270316 C316.153624,10.1959726 351.615456,9.75139949 354.421745,9.67854303 C356.71214,9.6041997 358.48664,8.41768011 359.226385,7.75156385 C359.447271,7.60287718 359.668157,7.67716535 359.74228,7.97310698 L363.288315,28.9438742 C363.362438,29.314104 362.919183,29.4627907 362.696815,29.1669042 C360.037289,25.2386025 357.156877,23.9792265 352.429324,23.9792265 C347.624684,23.9048832 330.116878,24.0535698 327.531475,24.0535698 C327.383229,24.0535698 327.234983,24.2007696 327.234983,24.3494563 L327.383229,39.2433995 C327.383229,39.3920862 327.531475,39.5407729 327.678238,39.5407729 C329.525378,39.5407729 338.835202,39.3177429 342.748886,39.3920862 C346.296403,39.4664295 350.064807,37.1692206 351.320447,36.3544176 C351.541333,36.205731 351.762219,36.3544176 351.836342,36.5759608 L355.08885,55.026489 C355.161491,55.3238624 354.792359,55.5454055 354.571473,55.3238624 C353.388473,54.3603728 350.728947,52.5820803 346.739658,52.5820803 C341.715614,52.6549367 329.377132,52.9523101 327.309106,53.0266534 C327.160861,53.0266534 327.012615,53.1753401 327.012615,53.3225399 L326.938492,71.6258683 C326.938492,71.7730681 327.086738,71.9217548 327.234983,71.9217548 C329.525378,71.9960981 343.931886,72.4406713 348.733561,72.5893579 C353.609359,72.7365577 359.447271,71.9217548 364.543955,66.5125339 C364.766323,66.2895039 365.135455,66.5125339 365.061332,66.8084204 L359.152262,88.9642204 C359.076657,89.1872504 358.781648,89.2615937 358.55928,89.0385637 C357.821017,88.0007308 355.899754,86.0752385 351.393087,85.8522085 C345.779026,85.556322 310.981335,85.1117489 305.144906,85.0374055 C304.848414,85.0374055 304.701651,84.6671757 304.92402,84.4441457 C308.913309,81.0362474 310.315712,79.2579549 310.389835,70.8095786 C310.463958,61.8437726 311.055458,22.3496206 310.981335,18.1254325 C310.83309,14.7903906 309.651572,12.1229518 307.4353,10.8635758" fill="white"></path>
  <path d="M379.509431,9.44869012 L400.470665,9.15347892 C400.543489,9.15347892 400.617798,9.22765259 400.692108,9.30034279 L423.505137,55.6559191 C423.57796,55.8769567 423.875198,55.8042665 423.875198,55.5817454 C423.948022,50.4059068 424.541012,22.6827562 424.615321,18.4682083 C424.688145,14.1809702 422.912147,11.0760604 419.948682,9.30034279 C419.800063,9.22765259 419.800063,8.93095791 420.022992,8.93095791 L444.020514,8.85826772 C444.243443,8.85826772 444.316266,9.15347892 444.094824,9.22765259 C440.98274,10.7066756 439.206742,15.8810307 439.132433,18.6907293 C439.058123,25.787666 437.576391,79.0918317 437.502082,84.3403605 C437.429258,89.0726406 440.686988,94.764728 442.021588,96.5404456 C442.094411,96.6873095 442.021588,96.9098305 441.798659,96.8356568 L420.022992,93.0646675 C419.874373,93.0646675 419.800063,92.8421465 419.874373,92.6952826 C420.911734,91.6598182 421.579033,89.885584 420.318744,87.0017117 C418.98563,83.8241117 397.06283,39.3169433 396.692768,39.5394643 C396.322707,39.7605018 396.025469,39.7605018 396.025469,40.4265813 C396.025469,41.0911774 395.432479,76.6515179 395.358169,79.8306014 C395.358169,82.7886473 397.06283,87.9630025 399.950499,90.3291425 C400.099118,90.4774899 400.024808,90.7000109 399.80188,90.7000109 L376.471657,88.5549084 C376.250214,88.5549084 376.250214,88.3338708 376.397347,88.1855235 C380.323863,85.3758249 381.138296,81.8273566 381.285429,76.9482126 C381.434048,71.8465476 382.620028,27.0441679 382.471409,21.2779069 C382.324276,15.6599932 382.324276,13.8101019 379.212192,9.96642234 C379.212192,9.59703746 379.287988,9.44869012 379.509431,9.44869012" fill="white"></path>
  <path d="M456.038211,5.01983399 L450.735059,30.7615063 C450.661158,31.1310892 451.103087,31.3537295 451.324791,30.9841466 C456.554042,23.363911 462.2267,22.4021049 464.876798,22.2551623 C467.308149,22.1067354 471.949146,22.1067354 473.201033,22.1067354 C473.422737,22.1067354 473.496638,22.2551623 473.496638,22.4763183 C473.422737,27.2838647 472.611301,82.837074 472.463499,87.7930473 C472.317174,92.8232339 472.906906,96.1509644 467.160346,100.441985 C466.940121,100.590412 467.014022,100.959995 467.234248,101.034208 L496.772569,109.243699 C497.140598,109.317912 497.360823,108.874116 497.066696,108.65296 C489.406095,102.068744 489.848024,89.6424461 489.995827,86.1648045 C490.436278,73.4431374 491.689643,26.3977562 491.763544,22.032522 C491.763544,21.8855794 491.911347,21.7371525 492.057671,21.7371525 C493.015431,21.7371525 495.740908,21.6629391 498.172259,21.6629391 C500.970159,21.6629391 506.568917,21.9597928 512.755928,27.506505 C512.976153,27.7291453 513.344181,27.506505 513.344181,27.2111355 C512.829829,23.7334939 511.062111,11.3814097 509.810225,5.3894169 C509.736323,5.16826086 509.442196,5.01983399 509.294394,5.24099003 C508.482959,5.98164011 506.273312,7.38724258 501.927919,7.46145602 C493.384937,7.60839862 469.959725,7.90525236 465.024601,7.9794658 C460.531406,8.05219497 458.101534,6.49964989 456.626465,4.79867795 C456.406239,4.65025108 456.038211,4.72440945 456.038211,5.01983399" fill="white"></path>
  <path d="M574.083236,104.313963 C571.573153,111.979713 566.032893,113.674667 554.882731,109.69463 C543.806657,105.640642 539.155446,101.880978 538.562746,88.7606103 C537.97301,75.7156722 538.710921,48.6644341 540.631268,35.4701151 C542.551615,22.2757961 550.230039,21.7596189 557.616558,21.3913434 C575.708715,20.5068907 576.372539,27.2881879 576.962275,42.471786 C577.553493,57.6568632 576.593319,96.7221639 574.083236,104.313963 M594.242433,36.7967942 C592.396174,15.420548 587.227833,5.61761712 558.428557,5.91194169 C547.276913,6.05984349 539.893357,7.68232616 534.428666,11.956688 C528.963976,16.2325288 524.385371,22.4976488 523.056242,37.3869224 C521.727113,52.2747169 520.618765,79.2534831 523.056242,96.2799375 C525.419632,113.306392 533.394406,117.138527 540.114138,120.455965 C546.83387,123.847353 558.870118,127.679488 567.141242,128.121715 C575.410884,128.48999 583.756095,125.174032 586.340265,120.382014 C588.925917,115.591475 591.361913,109.472778 592.101306,101.660605 C593.356347,86.9931839 596.090174,58.1715614 594.242433,36.7967942" fill="white"></path>
</svg>