<svg viewBox="0 0 195 360" xmlns="http://www.w3.org/2000/svg">
  <path d="M181.566272,159.866796 C175.433179,149.701696 160.536516,129.199752 134.06997,116.358307 C97.7918824,98.8833519 82.8952191,89.254952 87.976824,81.0505965 C93.0619457,72.6709189 109.534082,66.7886857 130.391521,81.5872966 C149.494136,94.9618631 157.730204,120.637596 158.957526,125.274685 C159.13336,125.628907 159.485028,125.990285 159.83318,126.165607 L162.987643,127.414329 C163.687463,127.593229 164.390799,127.414329 164.742467,126.702307 L177.708472,103.699341 C177.887823,103.341541 177.887823,102.983741 177.887823,102.629519 L156.85455,1.1681532 C156.678716,-0.0805690417 155.103243,-0.434791109 154.399906,0.631453094 C147.215326,9.90563087 136.172946,15.608964 123.379258,12.9361974 C109.534082,9.90563087 79.5649216,-0.259469076 50.8230827,20.0707308 C22.0812439,40.3973527 8.76005391,80.3385743 13.4935074,102.808419 C18.2269608,125.453585 29.7933267,141.500918 65.3680779,162.54314 C100.946346,183.581784 125.306399,200.702517 125.134082,224.950628 C124.958248,249.381217 111.637058,255.62125 90.2556337,255.445928 C69.2258777,255.26345 46.093146,244.744128 22.6052294,188.218873 C22.0812439,187.149051 20.6780879,186.970151 20.1541024,188.039973 L0.172317399,219.780417 C-4.26325641e-14,220.138217 -4.26325641e-14,220.496017 -4.26325641e-14,220.850239 L30.6689804,358.86446 C31.0171319,360.11676 32.771956,360.470982 33.2959416,359.22226 C50.1232631,326.411993 66.7712339,318.565438 93.0619457,322.848305 C120.224794,327.127593 140.554731,318.747916 153.875921,306.085371 C167.021277,293.601727 188.399184,264.716528 193.656623,232.618283 C193.719792,232.235568 195.854839,213.291619 192.857815,194.987846 C189.989361,177.46929 181.994502,160.56496 181.566272,159.866796 Z"></path>
  <path d="M149.808013,14.8769261 C149.632839,14.520864 149.285995,14.3463936 148.932144,14.520864 C144.395145,18.248834 138.460259,21.0866488 128.857236,20.9086177 C118.903865,20.7341473 96.902046,16.2940531 86.6018313,16.8281463 C76.3016166,17.3622394 43.4740615,22.1512744 31.7794639,55.6887618 C20.0813629,89.2262493 34.3965593,111.052855 41.3824873,119.039327 C48.3649117,127.0258 59.0154739,136.429399 84.5067536,149.560969 C109.998033,162.692539 133.569409,179.726549 137.759564,199.598373 C141.94972,219.473759 141.252528,232.249266 132.346696,243.607647 C123.444368,254.962466 113.666171,262.948939 90.4451427,262.240375 C67.9178023,261.706282 46.7953552,256.561185 20.7785543,208.47144 C20.4282069,207.940908 19.5558418,208.293409 19.7310155,208.827502 L44.7002775,318.847125 C44.8719478,319.377657 45.5726426,319.377657 45.7443129,319.021595 C47.4925466,315.297186 52.7302408,306.068057 62.6801081,304.116837 C75.078904,301.631523 99.0006272,303.052211 111.39592,303.230242 C123.791212,303.408273 143.172432,294.535206 151.377569,286.726765 C159.58621,278.918323 181.234178,260.285594 183.679603,220.894446 C186.300202,181.499738 168.663712,153.463409 157.491132,144.590342 C146.139875,135.717275 115.761249,114.780825 97.0772197,105.199194 C78.3966942,95.614003 67.2206109,79.2885566 74.7285566,63.8532654 C82.2365022,48.4144135 100.570184,49.6570702 106.508573,49.6570702 C112.443458,49.6570702 142.475241,47.3497879 164.823904,90.4689059 C165.170748,91.0029991 166.046617,90.824968 165.871443,90.1128439 L149.808013,14.8769261 Z" fill="white"></path>
</svg>
